{
  "accessors": [
    {
      "bufferView": 2,
      "componentType": 5126,
      "count": 364,
      "max": [
        1.9415003061294556,
        1.9415003061294556,
        0.5149063467979431
      ],
      "min": [
        -1.9415003061294556,
        -1.9415003061294556,
        -0.06372702121734619
      ],
      "type": "VEC3"
    },
    {
      "bufferView": 2,
      "byteOffset": 4368,
      "componentType": 5126,
      "count": 364,
      "max": [
        1.0,
        1.0,
        0.999987006187439
      ],
      "min": [
        -1.0,
        -1.0,
        -1.0
      ],
      "type": "VEC3"
    },
    {
      "bufferView": 1,
      "componentType": 5126,
      "count": 364,
      "max": [
        0.875,
        1.0
      ],
      "min": [
        0.125,
        0.0
      ],
      "type": "VEC2"
    },
    {
      "bufferView": 0,
      "componentType": 5125,
      "count": 594,
      "type": "SCALAR"
    },
    {
      "bufferView": 2,
      "byteOffset": 8736,
      "componentType": 5126,
      "count": 728,
      "max": [
        1.5848724842071533,
        1.5848724842071533,
        6.547670364379883
      ],
      "min": [
        -1.5848724842071533,
        -1.5848724842071533,
        0.4963349401950836
      ],
      "type": "VEC3"
    },
    {
      "bufferView": 2,
      "byteOffset": 17472,
      "componentType": 5126,
      "count": 728,
      "max": [
        0.9998707175254822,
        0.9986462593078613,
        0.9999093413352966
      ],
      "min": [
        -0.9998707175254822,
        -1.0,
        -0.9999877214431763
      ],
      "type": "VEC3"
    },
    {
      "bufferView": 1,
      "byteOffset": 2912,
      "componentType": 5126,
      "count": 728,
      "max": [
        0.5551841259002686,
        0.180184006690979
      ],
      "min": [
        0.44481605291366577,
        0.069815993309021
      ],
      "type": "VEC2"
    },
    {
      "bufferView": 0,
      "byteOffset": 2376,
      "componentType": 5125,
      "count": 1104,
      "type": "SCALAR"
    },
    {
      "bufferView": 2,
      "byteOffset": 26208,
      "componentType": 5126,
      "count": 136,
      "max": [
        0.1984851062297821,
        0.1984851062297821,
        7.381257057189941
      ],
      "min": [
        -0.1984851062297821,
        -0.1984851062297821,
        6.547670364379883
      ],
      "type": "VEC3"
    },
    {
      "bufferView": 2,
      "byteOffset": 27840,
      "componentType": 5126,
      "count": 136,
      "max": [
        0.9866648316383362,
        0.986664891242981,
        1.0
      ],
      "min": [
        -0.9866648316383362,
        -0.986664891242981,
        -0.3269595205783844
      ],
      "type": "VEC3"
    },
    {
      "bufferView": 1,
      "byteOffset": 8736,
      "componentType": 5126,
      "count": 136,
      "max": [
        0.5094438195228577,
        0.1344437599182129
      ],
      "min": [
        0.4905563294887543,
        0.1155562549829483
      ],
      "type": "VEC2"
    },
    {
      "bufferView": 0,
      "byteOffset": 6792,
      "componentType": 5125,
      "count": 210,
      "type": "SCALAR"
    },
    {
      "bufferView": 2,
      "byteOffset": 29472,
      "componentType": 5126,
      "count": 160,
      "max": [
        5.0,
        5.0,
        0.5
      ],
      "min": [
        -5.0,
        -5.0,
        0.0
      ],
      "type": "VEC3"
    },
    {
      "bufferView": 2,
      "byteOffset": 31392,
      "componentType": 5126,
      "count": 160,
      "max": [
        0.44506022334098816,
        0.44506028294563293,
        1.0
      ],
      "min": [
        -0.44506022334098816,
        -0.44506004452705383,
        0.8944271206855774
      ],
      "type": "VEC3"
    },
    {
      "bufferView": 1,
      "byteOffset": 9824,
      "componentType": 5126,
      "count": 160,
      "max": [
        0.0,
        0.0
      ],
      "min": [
        0.0,
        0.0
      ],
      "type": "VEC2"
    },
    {
      "bufferView": 0,
      "byteOffset": 7632,
      "componentType": 5125,
      "count": 282,
      "type": "SCALAR"
    }
  ],
  "asset": {
    "extras": {
      "author": "eddyhiro (https://sketchfab.com/eddyhero)",
      "license": "CC-BY-4.0 (http://creativecommons.org/licenses/by/4.0/)",
      "source": "https://sketchfab.com/3d-models/monas-lowpoly-f52b3108f088471ba99685a44b338507",
      "title": "MONAS [lowpoly]"
    },
    "generator": "Sketchfab-12.66.0",
    "version": "2.0"
  },
  "bufferViews": [
    {
      "buffer": 0,
      "byteLength": 8760,
      "name": "floatBufferViews",
      "target": 34963
    },
    {
      "buffer": 0,
      "byteLength": 11104,
      "byteOffset": 8760,
      "byteStride": 8,
      "name": "floatBufferViews",
      "target": 34962
    },
    {
      "buffer": 0,
      "byteLength": 33312,
      "byteOffset": 19864,
      "byteStride": 12,
      "name": "floatBufferViews",
      "target": 34962
    }
  ],
  "buffers": [
    {
      "byteLength": 53176,
      "uri": "scene.bin"
    }
  ],
  "materials": [
    {
      "doubleSided": true,
      "name": "gading",
      "pbrMetallicRoughness": {
        "baseColorFactor": [
          0.8,
          0.708697,
          0.26683,
          1.0
        ],
        "metallicFactor": 0.0,
        "roughnessFactor": 0.8443237800895377
      }
    },
    {
      "doubleSided": true,
      "emissiveFactor": [
        0.12477307279017619,
        0.23062272716203389,
        0.22404165591813954
      ],
      "name": "material",
      "pbrMetallicRoughness": {
        "baseColorFactor": [
          0.6753520657991144,
          0.9213560469775339,
          0.8931060480925929,
          1.0
        ],
        "metallicFactor": 0.0,
        "roughnessFactor": 0.45560213414634143
      }
    },
    {
      "doubleSided": true,
      "name": "emas",
      "pbrMetallicRoughness": {
        "baseColorFactor": [
          0.7999999999999999,
          0.6812330000000006,
          0.108106,
          1.0
        ],
        "metallicFactor": 0.0,
        "roughnessFactor": 0.8178540159557715
      }
    },
    {
      "doubleSided": true,
      "name": "green",
      "pbrMetallicRoughness": {
        "baseColorFactor": [
          0.203449,
          0.8,
          0.116035,
          1.0
        ],
        "metallicFactor": 0.0,
        "roughnessFactor": 0.8605160955130089
      }
    }
  ],
  "meshes": [
    {
      "name": "Cube_gading_0",
      "primitives": [
        {
          "attributes": {
            "NORMAL": 1,
            "POSITION": 0,
            "TEXCOORD_0": 2
          },
          "indices": 3,
          "material": 0,
          "mode": 4
        }
      ]
    },
    {
      "name": "Cube_Abu _0",
      "primitives": [
        {
          "attributes": {
            "NORMAL": 5,
            "POSITION": 4,
            "TEXCOORD_0": 6
          },
          "indices": 7,
          "material": 1,
          "mode": 4
        }
      ]
    },
    {
      "name": "Cube_emas_0",
      "primitives": [
        {
          "attributes": {
            "NORMAL": 9,
            "POSITION": 8,
            "TEXCOORD_0": 10
          },
          "indices": 11,
          "material": 2,
          "mode": 4
        }
      ]
    },
    {
      "name": "Circle_green_0",
      "primitives": [
        {
          "attributes": {
            "NORMAL": 13,
            "POSITION": 12,
            "TEXCOORD_0": 14
          },
          "indices": 15,
          "material": 3,
          "mode": 4
        }
      ]
    }
  ],
  "nodes": [
    {
      "children": [
        1
      ],
      "matrix": [
        1.0,
        0.0,
        0.0,
        0.0,
        0.0,
        2.220446049250313e-16,
        -1.0,
        0.0,
        0.0,
        1.0,
        2.220446049250313e-16,
        0.0,
        0.0,
        0.0,
        0.0,
        1.0
      ],
      "name": "Sketchfab_model"
    },
    {
      "children": [
        2
      ],
      "matrix": [
        1.0,
        0.0,
        0.0,
        0.0,
        0.0,
        0.0,
        1.0,
        0.0,
        0.0,
        -1.0,
        0.0,
        0.0,
        0.0,
        0.0,
        0.0,
        1.0
      ],
      "name": "cee44fb4a370466caf6c712b9e159604.fbx"
    },
    {
      "children": [
        3,
        7
      ],
      "name": "RootNode"
    },
    {
      "children": [
        4,
        5,
        6
      ],
      "matrix": [
        1.9470718848335622e-05,
        0.0,
        -99.99999999999811,
        0.0,
        -99.99999999999679,
        -1.6292067961387602e-05,
        -1.9470718859437852e-05,
        0.0,
        -1.6292067955836487e-05,
        99.99999999999869,
        -3.197442310920451e-12,
        0.0,
        0.0,
        55.124671936035156,
        0.0,
        1.0
      ],
      "name": "Cube"
    },
    {
      "mesh": 0,
      "name": "Cube_gading_0"
    },
    {
      "mesh": 1,
      "name": "Cube_Abu _0"
    },
    {
      "mesh": 2,
      "name": "Cube_emas_0"
    },
    {
      "children": [
        8
      ],
      "matrix": [
        100.0,
        0.0,
        0.0,
        0.0,
        0.0,
        -1.629206793918314e-05,
        -99.99999999999868,
        0.0,
        0.0,
        99.99999999999868,
        -1.629206793918314e-05,
        0.0,
        0.0,
        0.0,
        0.0,
        1.0
      ],
      "name": "Circle"
    },
    {
      "mesh": 3,
      "name": "Circle_green_0"
    }
  ],
  "scene": 0,
  "scenes": [
    {
      "name": "Sketchfab_Scene",
      "nodes": [
        0
      ]
    }
  ]
}
